<?xml version="1.0" standalone="no"?><!DOCTYPE svg PUBLIC "-//W3C//DTD SVG 1.1//EN" "http://www.w3.org/Graphics/SVG/1.1/DTD/svg11.dtd"><svg t="1531265847017" class="icon" style="" viewBox="0 0 1179 1024" version="1.1" xmlns="http://www.w3.org/2000/svg" p-id="1547" xmlns:xlink="http://www.w3.org/1999/xlink" width="230.2734375" height="200"><defs><style type="text/css"></style></defs><path d="M142.31918 540.267127l350.13559 373.653781c54.296613 63.852817 139.806023 63.883844 195.033436-1.054906l362.204951-388.670672c42.661625-48.866952 65.466202-112.130263 65.466203-182.902021a279.239726 279.239726 0 0 0-501.018122-169.653647 30.99561 30.99561 0 0 1-25.534922 12.131415 30.99561 30.99561 0 0 1-25.503895-12.131415A279.239726 279.239726 0 0 0 62.053272 341.293309c0 72.850542 28.792718 144.242832 77.411458 195.498835 1.054906 1.116959 1.985705 2.264944 2.85445 3.474983z m-54.606879 31.926409A349.732244 349.732244 0 0 1 0 341.293309C0 152.806494 152.806184 0.00031 341.292999 0.00031c95.065613 0 183.708713 39.155615 247.313317 106.111096A340.486306 340.486306 0 0 1 835.95066 0.00031c188.486815 0 341.292999 152.806184 341.292999 341.292999 0 80.793361-25.069522 154.636755-72.198982 213.463257-1.147986 1.923651-2.482131 3.754223-4.095516 5.491715l-5.181449 5.553768c-2.699317 3.071637-5.491715 6.112247-8.315138 9.090804-0.620533 0.620533-1.210039 1.241065-1.861598 1.799545L733.810974 954.069375c-79.055869 93.048882-209.553901 93.017855-287.616918 1.147985L90.783938 576.040839a31.243823 31.243823 0 0 1-3.102664-3.847303z" p-id="1548" fill="#bfbfbf"></path></svg>