<?xml version="1.0" standalone="no"?><!DOCTYPE svg PUBLIC "-//W3C//DTD SVG 1.1//EN" "http://www.w3.org/Graphics/SVG/1.1/DTD/svg11.dtd"><svg t="1533225927941" class="icon" style="" viewBox="0 0 1212 1024" version="1.1" xmlns="http://www.w3.org/2000/svg" p-id="5550" xmlns:xlink="http://www.w3.org/1999/xlink" width="331.40625" height="280"><defs><style type="text/css"></style></defs><path d="M 861.788 0 a 351.692 351.692 0 0 0 -255.519 110.392 A 351.692 351.692 0 0 0 350.75 0 C 157.366 0 0 157.366 0 350.75 c 0 106.149 41.4865 208.828 123.403 305.19 c 35.0938 41.3168 78.3341 82.973 132.172 127.25 a 1899.27 1899.27 0 0 0 160.289 117.633 L 606.269 1023.96 l 190.461 -123.121 a 1894.69 1894.69 0 0 0 160.289 -117.633 c 53.8193 -44.3151 97.0596 -85.9336 132.172 -127.25 C 1171.05 559.634 1212.54 456.955 1212.54 350.75 C 1212.54 157.366 1055.15 0 861.788 0 Z M 541.889 757.94 a 28.2863 28.2863 0 0 1 -39.1105 8.41045 a 1756.95 1756.95 0 0 1 -145.391 -106.771 c -46.4272 -38.2242 -82.973 -73.318 -111.919 -107.318 A 28.2863 28.2863 0 0 1 288.52 515.621 c 26.7022 31.4166 60.9663 64.2098 104.772 100.284 a 1688.78 1688.78 0 0 0 140.149 102.924 a 28.2863 28.2863 0 0 1 8.44816 39.1105 Z" fill="#bfbfbf" p-id="5551"></path></svg>